Coordinates
nRows=15
nColumns=24

# SIMM Motion File Header:
name Coordinates
datacolumns 24
datarows 15
otherdata 1
range 0.34799999999999998000 0.36199999999999999000
endheader
time	pelvis_tx	pelvis_ty	pelvis_tz	pelvis_tilt	pelvis_list	pelvis_rotation	hip_flexion_r	hip_adduction_r	hip_rotation_r	knee_angle_r	ankle_angle_r	subtalar_angle_r	mtp_angle_r	hip_flexion_l	hip_adduction_l	hip_rotation_l	knee_angle_l	ankle_angle_l	subtalar_angle_l	mtp_angle_l	lumbar_extension	lumbar_bending	lumbar_rotation
      0.34799999999999998000	      1.65220106664660160000	      0.86000236970455080000	     -0.22735568507955484000	     -6.25549929647562930000	      1.32864848955688130000	     -0.44507418958898082000	     -7.35483951216594800000	      1.48188671782936020000	      9.09614647034485730000	     -3.45969098644946400000	      8.30734964476719640000	     -0.00000000000005654532	      0.00000000000005010485	     32.60413156232837700000	     -1.93168109862260160000	      3.33656911318714800000	    -32.33672958807452600000	      4.36890911779047460000	      0.00000000000000718983	      0.00000000000000136950	     -3.76466005302821220000	     -4.43126377056759410000	      5.57042939233990530000
      0.34899999999999998000	      1.65374175816717210000	      0.85977122420861996000	     -0.22738690875998302000	     -6.26178377750025920000	      1.34944887083966950000	     -0.43295688954062583000	     -7.48882454793608240000	      1.45862289057226110000	      9.02274063765968390000	     -3.41778303692609550000	      8.28724013434267630000	     -0.00000000000005693660	      0.00000000000005107201	     32.66376132132631900000	     -1.89299860767560510000	      3.31894029125919940000	    -31.98844296223085900000	      4.31483524168960030000	      0.00000000000000727463	      0.00000000000000110447	     -3.76107788484176670000	     -4.44240444549003750000	      5.56577270203699110000
      0.34999999999999998000	      1.65528739084466860000	      0.85953798975917106000	     -0.22741876715853104000	     -6.26703081037056450000	      1.36986010619109710000	     -0.42146984721320496000	     -7.62307805147172420000	      1.43530303457619210000	      8.94838611352546920000	     -3.37773188775026690000	      8.26634614750882160000	     -0.00000000000005742654	      0.00000000000005225486	     32.71875392924990000000	     -1.85520213215712150000	      3.30239540943622870000	    -31.63703547551201800000	      4.25559299209637220000	      0.00000000000000737457	      0.00000000000000083928	     -3.75816123429232360000	     -4.45313873809234910000	      5.56230255793984970000
      0.35099999999999998000	      1.65683426686030220000	      0.85930428062767950000	     -0.22745073701996560000	     -6.27201221440529630000	      1.39017931323439160000	     -0.41016752860257100000	     -7.75738196082584520000	      1.41196167353785880000	      8.87383053428497700000	     -3.33818758426246860000	      8.24567531732208180000	     -0.00000000000005792603	      0.00000000000005344762	     32.77259742453551900000	     -1.81763900962671190000	      3.28608197396250780000	    -31.28495536907570000000	      4.19497261118617090000	      0.00000000000000747905	      0.00000000000000056922	     -3.75541819770476510000	     -4.46378405966574210000	      5.55917524035938990000
      0.35199999999999998000	      1.65838487289034700000	      0.85906914745006047000	     -0.22748304127005964000	     -6.27619673193330470000	      1.41022243535328600000	     -0.39941938114229814000	     -7.89183708763540270000	      1.38855579737273250000	      8.79867178972564900000	     -3.30016381783876330000	      8.22567395707668680000	     -0.00000000000005845419	      0.00000000000005467009	     32.82299358190726200000	     -1.78077594606052390000	      3.27046287753653700000	    -30.93085740348694300000	      4.13021783632504570000	      0.00000000000000759716	      0.00000000000000028453	     -3.75319600300285970000	     -4.47416246815238060000	      5.55707640232897670000
      0.35299999999999998000	      1.65993547892039170000	      0.85883401427244133000	     -0.22751534552015365000	     -6.28038124946131320000	      1.43026555747218050000	     -0.38867123368202522000	     -8.02629221444495930000	      1.36514992120760610000	      8.72351304516632280000	     -3.26214005141505850000	      8.20567259683129000000	     -0.00000000000005898234	      0.00000000000005589256	     32.87338973927900600000	     -1.74391288249433620000	      3.25484378111056620000	    -30.57675943789818600000	      4.06546306146392040000	      0.00000000000000771527	     -0.00000000000000000017	     -3.75097380830095430000	     -4.48454087663902000000	      5.55497756429856350000
      0.35399999999999998000	      1.66149022026337150000	      0.85859656536376561000	     -0.22754774676229064000	     -6.28419133819496880000	      1.44988725956738330000	     -0.37877696938310518000	     -8.15999956619484830000	      1.34177264119313120000	      8.64794927835026250000	     -3.22647701536452660000	      8.18635974141005110000	     -0.00000000000005949651	      0.00000000000005698023	     32.92056882058395900000	     -1.70806478247173650000	      3.23991414954907060000	    -30.22115058759239400000	      3.99655111800316880000	      0.00000000000000783880	     -0.00000000000000030298	     -3.74871761486127930000	     -4.49451715457824450000	      5.55439111721596480000
      0.35499999999999998000	      1.66304634004399630000	      0.85835834454473758000	     -0.22758018033510863000	     -6.28787661733050650000	      1.46936848832135580000	     -0.36916733280463593000	     -8.29345765959151570000	      1.31840489322887320000	      8.57225050411529030000	     -3.19160088943838540000	      8.16727638759686770000	     -0.00000000000006000601	      0.00000000000005802296	     32.96667554319998300000	     -1.67255500363033250000	      3.22521433960906690000	    -29.86503810904759200000	      3.92625345167587670000	      0.00000000000000796413	     -0.00000000000000061182	     -3.74645008850901420000	     -4.50435938900166380000	      5.55430880044930400000
      0.35599999999999998000	      1.66460380157295050000	      0.85811925937306555000	     -0.22761259200129605000	     -6.29155333399145090000	      1.48871070713429040000	     -0.35988043001035780000	     -8.42646423771051720000	      1.29503733657552770000	      8.49643713050353530000	     -3.15762402026597890000	      8.14775825373989090000	     -0.00000000000006051336	      0.00000000000005900927	     33.01189001369890300000	     -1.63738908588173970000	      3.21073338863343820000	    -29.50867167529525000000	      3.85500776872238890000	      0.00000000000000808602	     -0.00000000000000091306	     -3.74403815753862320000	     -4.51407828273425070000	      5.55479889485922930000
      0.35699999999999998000	      1.66616528834689290000	      0.85787758114346091000	     -0.22764493794759180000	     -6.29520436322861790000	      1.50763589612411210000	     -0.35156172856865114000	     -8.55811626999652830000	      1.27167035385491940000	      8.42027995876143190000	     -3.12634492135477200000	      8.12693577975154820000	     -0.00000000000006101427	      0.00000000000005982630	     33.05442772784651600000	     -1.60325475141157850000	      3.19690901455093400000	    -29.15154337592029100000	      3.78091803589032120000	      0.00000000000000819759	     -0.00000000000000119145	     -3.74119301271385400000	     -4.52342715439434070000	      5.55700622279890770000
      0.35799999999999998000	      1.66772677512083560000	      0.85763590291385627000	     -0.22767728389388758000	     -6.29885539246578490000	      1.52656108511393400000	     -0.34324302712694449000	     -8.68976830228254120000	      1.24830337113431120000	      8.34412278701932840000	     -3.09506582244356570000	      8.10611330576320380000	     -0.00000000000006151518	      0.00000000000006064333	     33.09696544199413600000	     -1.56912041694141720000	      3.18308464046842940000	    -28.79441507654533100000	      3.70682830305825380000	      0.00000000000000830916	     -0.00000000000000146985	     -3.73834786788908510000	     -4.53277602605443080000	      5.55921355073858690000
      0.35899999999999999000	      1.66929196816882940000	      0.85739209886284451000	     -0.22770966086356687000	     -6.30246255483418860000	      1.54518105339624250000	     -0.33572892058590931000	     -8.82019230212199550000	      1.22483922061029200000	      8.26742204225623570000	     -3.06617774505564620000	      8.08202926414586460000	     -0.00000000000006208540	      0.00000000000006158975	     33.13714942597929500000	     -1.53575981957949860000	      3.16997342492894770000	    -28.43704336921648900000	      3.63128305277026750000	      0.00000000000000841852	     -0.00000000000000175076	     -3.73514378800640090000	     -4.54189185467087150000	      5.56295135950258770000
      0.35999999999999999000	      1.67085839664150710000	      0.85714758620469700000	     -0.22774204817437402000	     -6.30605509491300520000	      1.56369928144271350000	     -0.32848301234509697000	     -8.95020695781259870000	      1.20134268081846930000	      8.19054010648614470000	     -3.03808667484215310000	      8.05685803331886420000	     -0.00000000000006267872	      0.00000000000006257929	     33.17654883324362900000	     -1.50265713458699320000	      3.15709992890380550000	    -28.07959052590301900000	      3.55525262999697670000	      0.00000000000000852714	     -0.00000000000000203251	     -3.73182006310441140000	     -4.55093000227276350000	      5.56719932854136080000
      0.36099999999999999000	      1.67242863384530230000	      0.85690120011538995000	     -0.22777461698389070000	     -6.30953099051436260000	      1.58197551380447240000	     -0.32192477609439341000	     -9.07907126045525280000	      1.17767488514487860000	      8.11286095338593680000	     -3.01233974005597330000	      8.02742991225453120000	     -0.00000000000006326100	      0.00000000000006354633	     33.21361432111852700000	     -1.47015218525297240000	      3.14512614444946600000	    -27.72235276268608900000	      3.47850874199645290000	      0.00000000000000863063	     -0.00000000000000230377	     -3.72823150029991050000	     -4.55982526380034430000	      5.57290186294793700000
      0.36199999999999999000	      1.67400014062613640000	      0.85665418954902950000	     -0.22780724629297722000	     -6.31296800462323480000	      1.60017108093799370000	     -0.31559576384039290000	     -9.20755211208192210000	      1.15395000417736560000	      8.03491606117569110000	     -2.98737418374556410000	      7.99658282777775220000	     -0.00000000000006383958	      0.00000000000006450587	     33.24990183586361100000	     -1.43784648113844680000	      3.13345226385206120000	    -27.36518669283467600000	      3.40152703225351740000	      0.00000000000000873241	     -0.00000000000000257153	     -3.72455465819457170000	     -4.56867289663648980000	      5.57908925247711450000
